<svg width="32" height="32" viewBox="0 0 32 32" fill="none" xmlns="http://www.w3.org/2000/svg">
<path d="M25.3374 8.26554C23.1015 6.45849 19.9292 6.12524 19.9292 6.12524L19.8749 8.25004C17.3187 8.25004 14.6811 8.25004 12.1249 8.25004L12.1107 6.25829C12.1107 6.25829 8.89963 6.45849 6.63275 8.29008C5.44829 9.38929 3.08325 15.8205 3.08325 21.3798C3.08325 21.478 3.10779 21.5736 3.15688 21.6588C4.79083 24.5431 9.24579 25.2974 10.2597 25.3297C10.2662 25.331 10.2714 25.331 10.2778 25.331C10.4574 25.331 10.6472 25.2587 10.7312 25.0985L11.7426 23.1804C10.9082 22.9686 10.0466 22.7167 9.10758 22.3834C8.43463 22.1445 8.08458 21.4057 8.32354 20.734C8.5625 20.0623 9.30263 19.7123 9.973 19.9499C14.5274 21.5697 17.2373 21.5684 22.0436 19.9435C22.7217 19.7174 23.4541 20.0778 23.6815 20.7534C23.9101 21.4289 23.5471 22.1626 22.8716 22.3912C21.9312 22.7089 21.0736 22.9518 20.243 23.1584L21.2673 25.0998C21.3513 25.26 21.5425 25.3323 21.7207 25.3323C21.7272 25.3323 21.7323 25.3323 21.7388 25.331C22.754 25.2987 27.209 24.5431 28.8417 21.6588C28.892 21.5736 28.9166 21.478 28.9166 21.3785C28.9166 15.8205 26.5515 9.38928 25.3374 8.26554ZM12.1766 18.5679C11.1058 18.5679 10.2391 17.4144 10.2391 15.9897C10.2391 14.5663 11.1058 13.4115 12.1766 13.4115C13.2512 13.2695 14.0908 14.565 14.1141 15.9897C14.1141 17.4144 13.2474 18.5679 12.1766 18.5679ZM19.8697 18.5989C18.799 18.5989 17.9322 17.4428 17.9322 16.0155C17.9322 14.5882 18.799 13.4322 19.8697 13.4322C20.9405 13.4322 21.8072 14.5882 21.8072 16.0155C21.8072 17.4428 20.9405 18.5989 19.8697 18.5989Z" fill="url(#paint0_linear_113_608)"/>
<defs>
<linearGradient id="paint0_linear_113_608" x1="15.9999" y1="6.12524" x2="15.9999" y2="25.3323" gradientUnits="userSpaceOnUse">
<stop stop-color="#FFCC5A"/>
<stop offset="0.465" stop-color="#FFFFBA"/>
<stop offset="1" stop-color="#803A17"/>
</linearGradient>
</defs>
</svg>
