<svg width="34" height="24" viewBox="0 0 34 24" fill="none" xmlns="http://www.w3.org/2000/svg">
<path d="M19.0282 0.786977L29.7944 6.14279C30.2987 6.38326 30.2987 7.10465 29.8163 7.34512L15.8488 14.6902C15.0595 15.1056 14.1385 15.1056 13.3492 14.7121L4.5784 10.34C3.50399 9.90279 2.31993 10.6898 2.31993 11.8702C2.31993 12.8102 2.84618 13.6847 3.70133 14.1L12.494 18.494C13.0203 17.9474 13.7877 17.6195 14.599 17.6195C15.4103 17.6195 16.1339 17.9474 16.6601 18.4502L27.6236 12.6791C27.6017 12.5042 27.5797 12.3293 27.5797 12.1544C27.5797 10.5149 28.8953 9.20326 30.5399 9.20326C32.1844 9.20326 33.5 10.5149 33.5 12.1544C33.5 13.794 32.1844 15.1056 30.5399 15.1056C29.7505 15.1056 29.005 14.7995 28.4787 14.2749L17.5153 20.046C17.5372 20.2209 17.5591 20.374 17.5591 20.5488C17.5591 22.1884 16.2435 23.5 14.599 23.5C12.9545 23.5 11.6389 22.1884 11.6389 20.5488C11.6389 20.3958 11.6608 20.2428 11.6827 20.1116L2.75847 15.674C1.37708 14.9744 0.5 13.5753 0.5 12.0233V11.1707C0.5 9.99023 1.15781 8.91907 2.18837 8.3507L16.5505 0.786977C17.296 0.415349 18.2389 0.393489 19.0282 0.786977ZM14.5771 21.7293C15.213 21.7293 15.7173 21.2265 15.7173 20.5926C15.7173 19.9586 15.213 19.4558 14.5771 19.4558C13.9412 19.4558 13.4369 19.9586 13.4369 20.5926C13.4369 21.2265 13.9412 21.7293 14.5771 21.7293ZM31.6581 12.1981C31.6581 12.8321 31.1538 13.3349 30.5179 13.3349C29.8821 13.3349 29.3777 12.8321 29.3777 12.1981C29.3777 11.5642 29.8821 11.0614 30.5179 11.0614C31.1319 11.0614 31.6581 11.5642 31.6581 12.1981Z" fill="url(#paint0_linear_113_618)"/>
<defs>
<linearGradient id="paint0_linear_113_618" x1="17" y1="0.5" x2="17" y2="23.5" gradientUnits="userSpaceOnUse">
<stop stop-color="#FFCC5A"/>
<stop offset="0.465" stop-color="#FFFFBA"/>
<stop offset="1" stop-color="#803A17"/>
</linearGradient>
</defs>
</svg>
