<svg width="28" height="28" viewBox="0 0 28 28" fill="none" xmlns="http://www.w3.org/2000/svg">
<path d="M3.21691 12.5801C10.4867 9.28704 19.8943 5.27209 21.1929 4.71639C24.5993 3.26194 25.6446 3.54068 25.1234 6.76169C24.7491 9.07679 23.6692 16.7416 22.8085 21.5123C22.2977 24.3414 21.1519 24.6768 19.35 23.4528C18.4835 22.8638 14.11 19.8858 13.1608 19.1865C12.2943 18.5492 11.0992 17.7827 12.598 16.2728C13.1313 15.735 16.6273 12.2978 19.3512 9.62236C19.7081 9.27095 19.2598 8.69382 18.848 8.97554C15.1766 11.4824 10.0864 14.9619 9.43856 15.4152C8.45984 16.0995 7.51989 16.4134 5.83259 15.9143C4.55772 15.5373 3.31236 15.0876 2.82763 14.9161C0.961018 14.2561 1.4041 13.4014 3.21691 12.5801Z" fill="url(#paint0_linear_113_602)"/>
<defs>
<linearGradient id="paint0_linear_113_602" x1="13.4375" y1="3.875" x2="13.4375" y2="24.125" gradientUnits="userSpaceOnUse">
<stop stop-color="#FFCC5A"/>
<stop offset="0.465" stop-color="#FFFFBA"/>
<stop offset="1" stop-color="#803A17"/>
</linearGradient>
</defs>
</svg>
